<svg viewBox="33.87499999999997 42.72606382978722 203.25000000000003 281.44946808510633" fill="none" xmlns="http://www.w3.org/2000/svg" xmlns:xlink="http://www.w3.org/1999/xlink" overflow="visible" width="203.25000000000003px" height="281.44946808510633px"><g id="Master/Female Character/Avatar"><g id="Avatars" opacity="0.5" transform="translate(17 15) scale(1.4023668639053255 1.4047619047619047)"><g id="Avatars/Avatar and Backdrop 6"><g id="Group 2"><g id="Group"><path id="Fill 12" fill-rule="evenodd" clip-rule="evenodd" d="M151.534 135.181C152.037 135.181 152.519 134.824 152.743 134.216C152.778 134.119 153.634 131.776 154.506 127.704C154.694 126.823 154.272 125.918 153.565 125.684C152.842 125.444 152.124 125.975 151.938 126.854C151.128 130.631 150.332 132.822 150.323 132.842C150.02 133.672 150.316 134.654 150.982 135.031C151.162 135.134 151.349 135.181 151.534 135.181" fill="#FFECE9"/><path id="Fill 14" fill-rule="evenodd" clip-rule="evenodd" d="M45.8832 25.3402C45.9279 25.3402 45.9745 25.3382 46.0211 25.3342C49.7509 24.9726 53.5486 24.8907 57.7366 25.1284C58.5385 25.1764 59.2277 24.5431 59.2724 23.7161C59.317 22.887 58.7035 22.1819 57.8997 22.1359C53.7195 21.8982 49.6499 21.9741 45.7493 22.3497C44.9493 22.4276 44.361 23.1587 44.4348 23.9818C44.5067 24.7588 45.1396 25.3402 45.8832 25.3402M81.2355 29.6691C81.853 29.6691 82.4257 29.2616 82.6238 28.6243C82.8665 27.8353 82.4432 26.9922 81.6763 26.7425C77.7659 25.464 73.8168 24.4312 69.9394 23.6701C69.1511 23.5083 68.3881 24.0477 68.2367 24.8607C68.0852 25.6738 68.6017 26.4589 69.3919 26.6127C73.1566 27.3518 76.9932 28.3567 80.7948 29.5992C80.9424 29.6471 81.0899 29.6691 81.2355 29.6691M103.098 39.4757C103.608 39.4757 104.105 39.198 104.373 38.7046C104.762 37.9814 104.507 37.0685 103.804 36.667C100.216 34.6213 96.576 32.7615 92.986 31.1434C92.254 30.8118 91.392 31.1554 91.0677 31.9145C90.7435 32.6716 91.0794 33.5546 91.8172 33.8862C95.3256 35.4684 98.8845 37.2842 102.391 39.2879C102.616 39.4157 102.859 39.4757 103.098 39.4757M122.964 53.0858C123.393 53.0858 123.818 52.892 124.104 52.5185C124.605 51.8692 124.5 50.9283 123.871 50.4149C122.473 49.2722 121.019 48.1356 119.506 47.0069C117.735 45.6824 115.916 44.378 114.103 43.1314C113.433 42.6739 112.528 42.8597 112.083 43.5469C111.637 44.2341 111.817 45.165 112.487 45.6245C114.27 46.8491 116.056 48.1276 117.796 49.4301C119.275 50.5348 120.694 51.6455 122.057 52.7602C122.327 52.9799 122.646 53.0858 122.964 53.0858M139.842 70.3936C140.153 70.3936 140.465 70.2917 140.731 70.08C141.368 69.5726 141.483 68.6317 140.99 67.9784C138.594 64.7941 135.883 61.6578 132.932 58.6553C132.357 58.074 131.435 58.078 130.872 58.6673C130.307 59.2546 130.311 60.2035 130.884 60.7848C133.744 63.6954 136.369 66.7339 138.689 69.8123C138.974 70.1938 139.405 70.3936 139.842 70.3936M151.231 91.8645C151.387 91.8645 151.544 91.8386 151.697 91.7846C152.46 91.5209 152.868 90.6699 152.61 89.8868C151.332 85.9974 149.674 82.1399 147.686 78.4162C147.298 77.6911 146.412 77.4234 145.708 77.8249C145.003 78.2245 144.747 79.1354 145.133 79.8605C147.042 83.4284 148.628 87.1261 149.853 90.8457C150.057 91.471 150.624 91.8645 151.231 91.8645M154.445 116.072C155.212 116.072 155.854 115.455 155.897 114.66C155.963 113.463 156 112.221 156 110.938C156 107.992 155.802 105.021 155.414 102.107C155.303 101.288 154.585 100.698 153.771 100.826C152.975 100.94 152.418 101.695 152.528 102.516C152.899 105.293 153.088 108.128 153.088 110.938C153.088 112.163 153.051 113.347 152.989 114.488C152.944 115.315 153.557 116.024 154.359 116.07C154.388 116.072 154.416 116.072 154.445 116.072" fill="#FFECE9"/><path id="Fill 16" fill-rule="evenodd" clip-rule="evenodd" d="M26.5022 29.3495C26.7374 29.3495 26.9792 29.3088 27.2058 29.2186C27.2275 29.2115 29.3078 28.4105 33.0937 27.5441C33.9629 27.3461 34.4683 26.6141 34.2243 25.9103C33.9825 25.2066 33.0959 24.7857 32.2094 24.9926C28.1163 25.9262 25.8835 26.7926 25.792 26.828C24.9795 27.1463 24.6397 27.9367 25.0275 28.5962C25.3085 29.0719 25.8944 29.3495 26.5022 29.3495" fill="#FFECE9"/><path id="Fill 18" fill-rule="evenodd" clip-rule="evenodd" d="M139.683 141.06C140.311 141.06 140.922 140.797 141.25 140.329C141.307 140.247 142.67 138.299 144.289 134.919C144.644 134.183 144.179 133.355 143.252 133.072C142.325 132.786 141.286 133.16 140.934 133.899C139.418 137.062 138.129 138.912 138.117 138.931C137.633 139.62 137.94 140.492 138.807 140.877C139.085 141.001 139.386 141.06 139.683 141.06" fill="#FFECE9"/><path id="Fill 20" fill-rule="evenodd" clip-rule="evenodd" d="M37.9264 37.07C38.0086 37.07 38.0909 37.0641 38.1732 37.0484C42.0074 36.3973 45.9904 36.0374 50.0126 35.9744C50.8237 35.9626 51.4703 35.2919 51.4585 34.4776C51.4448 33.6692 50.7904 33.024 49.9891 33.024H49.9676C45.7984 33.0909 41.6625 33.4646 37.6834 34.1413C36.8841 34.275 36.3433 35.0382 36.4805 35.8407C36.6 36.5606 37.223 37.07 37.9264 37.07M73.9892 38.913C74.6436 38.913 75.2431 38.4704 75.4116 37.8037C75.6114 37.0149 75.1373 36.2105 74.3517 36.0098C70.3197 34.9792 66.2543 34.2042 62.2674 33.7066C61.4328 33.6102 60.7255 34.1806 60.6275 34.987C60.5276 35.7974 61.0977 36.535 61.903 36.6333C65.7704 37.1152 69.7143 37.8666 73.6248 38.8678C73.7463 38.8992 73.8697 38.913 73.9892 38.913M96.6336 47.475C97.1743 47.475 97.6935 47.176 97.9521 46.6568C98.3126 45.927 98.0168 45.0419 97.2899 44.678C93.5596 42.8154 89.7823 41.1514 86.0579 39.7352C85.3114 39.4441 84.4513 39.8276 84.1653 40.5927C83.8773 41.3539 84.2574 42.2056 85.0175 42.4948C88.6499 43.8755 92.3371 45.5002 95.9812 47.3216C96.1908 47.4258 96.4142 47.475 96.6336 47.475M117.278 60.1715C117.722 60.1715 118.165 59.9689 118.455 59.5833C118.943 58.9323 118.812 58.0078 118.163 57.5181C116.578 56.3202 114.885 55.1184 113.138 53.9422C111.408 52.7837 109.694 51.6862 107.999 50.6437C107.303 50.2129 106.4 50.4372 105.977 51.1315C105.556 51.8278 105.771 52.7365 106.463 53.1614C108.128 54.1822 109.807 55.262 111.506 56.3969C113.208 57.5397 114.854 58.71 116.396 59.8764C116.66 60.0751 116.972 60.1715 117.278 60.1715M134.387 77.2836C134.687 77.2836 134.989 77.1912 135.249 77.0043C135.906 76.5244 136.053 75.6019 135.576 74.943C133.237 71.7074 130.522 68.5525 127.503 65.5628C126.927 64.9943 125.992 64.9943 125.424 65.5785C124.854 66.1588 124.862 67.093 125.44 67.6654C128.343 70.541 130.953 73.5721 133.196 76.6759C133.484 77.0732 133.933 77.2836 134.387 77.2836M144.426 99.2462C144.534 99.2462 144.644 99.2344 144.751 99.2108C145.545 99.0319 146.041 98.2431 145.862 97.4465C144.957 93.4124 143.609 89.4431 141.862 85.6529C141.519 84.9113 140.645 84.5966 139.91 84.935C139.174 85.2772 138.854 86.1544 139.193 86.894C140.856 90.4954 142.134 94.264 142.996 98.0956C143.149 98.7821 143.756 99.2462 144.426 99.2462M144.804 123.422C145.5 123.422 146.119 122.922 146.248 122.212C146.95 118.341 147.306 114.437 147.306 110.607L147.3 109.816C147.289 109.008 146.632 108.363 145.831 108.363H145.809C144.996 108.375 144.35 109.045 144.361 109.86L144.367 110.607C144.367 114.26 144.026 117.987 143.356 121.683C143.209 122.485 143.74 123.251 144.538 123.4C144.628 123.414 144.716 123.422 144.804 123.422" fill="#FFECE9"/><path id="Fill 22" fill-rule="evenodd" clip-rule="evenodd" d="M20.4808 41.8434C20.7174 41.8434 20.9559 41.791 21.1756 41.6814C21.1925 41.6732 22.9331 40.8206 26.1121 39.8143C26.8444 39.5819 27.2219 38.8782 26.9552 38.2417C26.6923 37.6035 25.8812 37.2779 25.1507 37.507C21.7201 38.5935 19.8574 39.5115 19.7804 39.5508C19.1063 39.8863 18.8716 40.6341 19.2565 41.2232C19.5157 41.6192 19.9907 41.8434 20.4808 41.8434" fill="#FFECE9"/><path id="Fill 24" fill-rule="evenodd" clip-rule="evenodd" d="M128.087 144C128.72 144 129.332 143.731 129.656 143.255C129.714 143.175 131.047 141.221 132.692 137.872C133.053 137.135 132.601 136.304 131.68 136.013C130.762 135.729 129.721 136.086 129.356 136.823C127.805 139.985 126.53 141.861 126.516 141.88C126.043 142.573 126.358 143.444 127.227 143.822C127.5 143.945 127.796 144 128.087 144" fill="#FFECE9"/><path id="Fill 26" fill-rule="evenodd" clip-rule="evenodd" d="M68.5567 47.8759C69.2394 47.8759 69.8464 47.38 69.9822 46.6662C70.1354 45.8504 69.6234 45.0645 68.836 44.9046C64.9302 44.1168 61.0341 43.5829 57.2505 43.3149C56.5116 43.2769 55.7553 43.8788 55.701 44.7086C55.6466 45.5344 56.2498 46.2503 57.0527 46.3063C60.7141 46.5662 64.49 47.0841 68.2736 47.8479C68.3686 47.8659 68.4637 47.8759 68.5567 47.8759M34.2888 48.2079C34.4071 48.2079 34.5235 48.1939 34.6418 48.1639C38.1927 47.2521 41.9317 46.6382 45.76 46.3343C46.5609 46.2703 47.1602 45.5504 47.1 44.7246C47.038 43.8968 46.3592 43.3069 45.5369 43.3429C41.5477 43.6609 37.6478 44.3027 33.9398 45.2525C33.1602 45.4525 32.685 46.2663 32.8809 47.0701C33.0438 47.752 33.6372 48.2079 34.2888 48.2079M90.5313 54.8224C91.1034 54.8224 91.6444 54.4725 91.8752 53.8946C92.1836 53.1288 91.8287 52.251 91.0859 51.935C87.4167 50.3754 83.732 49.0017 80.1384 47.8559C79.3627 47.62 78.554 48.0559 78.3174 48.8457C78.0808 49.6375 78.5113 50.4773 79.2774 50.7233C82.7895 51.841 86.3889 53.1827 89.9766 54.7084C90.1589 54.7864 90.3451 54.8224 90.5313 54.8224M110.966 65.67C111.437 65.67 111.903 65.434 112.18 64.9981C112.626 64.3083 112.442 63.3785 111.771 62.9206C109.364 61.277 106.765 59.6973 104.05 58.2216C103.244 57.7837 102.441 57.3538 101.642 56.9399C100.926 56.566 100.049 56.8659 99.6888 57.6058C99.3261 58.3436 99.617 59.2474 100.335 59.6193C101.114 60.0252 101.902 60.4431 102.693 60.875C105.324 62.3047 107.84 63.8324 110.165 65.42C110.413 65.59 110.693 65.67 110.966 65.67M127.675 81.8064C127.97 81.8064 128.267 81.7144 128.525 81.5225C129.176 81.0386 129.324 80.1008 128.854 79.4289C126.626 76.2416 123.992 73.1883 121.023 70.3589C120.438 69.7991 119.513 69.8311 118.968 70.4429C118.423 71.0508 118.458 71.9986 119.049 72.5625C121.875 75.2539 124.378 78.1572 126.494 81.1825C126.777 81.5885 127.223 81.8064 127.675 81.8064M136.462 103.512C136.542 103.512 136.623 103.506 136.705 103.49C137.496 103.354 138.031 102.58 137.897 101.764C137.24 97.7109 136.142 93.7698 134.635 90.0526C134.325 89.2847 133.472 88.9268 132.733 89.2448C131.992 89.5667 131.641 90.4445 131.949 91.2083C133.371 94.7155 134.407 98.4327 135.029 102.26C135.147 102.992 135.764 103.512 136.462 103.512M135.667 127.096C136.336 127.096 136.939 126.618 137.087 125.917C137.946 121.876 138.458 117.832 138.611 113.903C138.644 113.073 138.02 112.378 137.217 112.344C136.377 112.304 135.737 112.953 135.706 113.781C135.559 117.536 135.068 121.404 134.246 125.277C134.073 126.085 134.569 126.884 135.355 127.062C135.46 127.084 135.564 127.096 135.667 127.096" fill="#FFECE9"/><path id="Fill 28" fill-rule="evenodd" clip-rule="evenodd" d="M15.4641 56.5422C15.7741 56.5422 16.086 56.432 16.3512 56.205C16.3687 56.1896 18.0103 54.7836 21.1452 53.0668C21.8704 52.6679 22.1746 51.6806 21.8236 50.8586C21.4727 50.0388 20.5993 49.6972 19.8702 50.0916C16.4369 51.9715 14.6453 53.5164 14.5712 53.5803C13.9317 54.1378 13.8109 55.1736 14.3022 55.8965C14.5907 56.3196 15.0235 56.5422 15.4641 56.5422" fill="#FFECE9"/></g><path id="Fill 10" opacity="0.526646" fill-rule="evenodd" clip-rule="evenodd" d="M20.019 69.197C8.74896 86.7794 21.9934 115.273 49.5957 132.836C77.1993 150.401 108.713 150.385 119.981 132.803C131.25 115.221 118.008 86.7285 90.4034 69.1635C62.8011 51.5999 31.2877 51.6133 20.019 69.197" fill="#FEDAD4"/></g></g></g><g id="Female Character/Head" transform="translate(30 37) scale(4.018867924528302 4.018868029957086)"><g id="Female Character/Head/Long Hair 5"><g id="Group 186"><path id="Fill 57" fill-rule="evenodd" clip-rule="evenodd" d="M20.3004 32.0304C20.3004 32.0304 21.4344 34.2984 23.9144 35.7864C26.3944 37.2744 29.5124 39.5424 31.0714 39.0464C32.6314 38.5504 36.7624 35.3844 37.7544 31.8414C38.7464 28.2984 39.3634 22.3924 38.7254 19.4864C38.0884 16.5814 34.4734 10.4864 28.0254 10.4864C21.5754 10.4864 15.8364 17.2894 17.3944 24.8014C17.3944 24.8014 15.6024 26.9994 17.1364 29.2664C18.6704 31.5344 20.3004 32.0304 20.3004 32.0304" fill="#a15122"/><path id="Fill 59" fill-rule="evenodd" clip-rule="evenodd" d="M24.148 27.2823C24.148 27.2823 26.995 27.3523 27.751 27.9023C27.751 27.9023 28.028 28.0003 27.921 27.6363C27.921 27.6363 28.329 27.9283 28.356 27.7693C28.382 27.6093 28.178 26.0683 26.575 25.8553C24.972 25.6433 23.767 27.1133 24.148 27.2823" fill="black"/><path id="Fill 61" fill-rule="evenodd" clip-rule="evenodd" d="M36.6207 26.8741C36.6207 26.8741 34.8147 26.8481 34.0827 27.3961C34.0827 27.3961 33.8147 27.4941 33.9167 27.1311C33.9167 27.1311 33.5227 27.4231 33.4967 27.2641C33.4717 27.1041 34.2057 25.6521 35.7587 25.4391C37.3107 25.2271 37.7187 26.5851 36.6207 26.8741" fill="black"/><path id="Fill 63" fill-rule="evenodd" clip-rule="evenodd" d="M31.8901 32.2247C31.8901 32.2247 31.6771 32.4027 31.8901 32.5787C32.1021 32.7567 33.5021 32.2607 33.8211 31.7997C34.1401 31.3387 33.9511 31.2867 33.4961 31.5517C33.0411 31.8177 31.8901 32.2247 31.8901 32.2247" fill="black"/><path id="Fill 65" fill-rule="evenodd" clip-rule="evenodd" d="M29.02 33.6602C29.02 33.6602 28.932 33.5012 29.693 33.5012C30.455 33.5012 30.384 33.6422 31.624 33.6602C32.864 33.6782 33.372 33.6602 32.888 33.9782C32.404 34.2982 32.439 34.2802 32.351 34.5282C32.262 34.7762 31.141 35.2192 30.257 34.9182C29.374 34.6162 28.472 33.8172 29.02 33.6602" fill="#EE4E2F"/><path id="Fill 67" fill-rule="evenodd" clip-rule="evenodd" d="M23.6992 23.1007C23.8342 23.0587 23.6522 23.3367 24.2662 23.2307C24.8802 23.1247 26.5572 22.9357 28.0692 23.8807C28.0692 23.8807 28.3392 23.6677 28.3582 23.2667C28.3752 22.8907 25.8292 21.6037 23.6632 23.0307C23.5152 23.1277 23.5612 23.1437 23.6992 23.1007" fill="black"/><path id="Fill 69" fill-rule="evenodd" clip-rule="evenodd" d="M36.6204 23.2423C36.6204 23.2423 35.7224 22.2743 34.2104 22.7223C32.6994 23.1723 32.8394 23.8563 32.8874 24.0463C32.9354 24.2343 34.0214 23.3123 35.1554 23.3253C36.2894 23.3373 36.6204 23.5733 36.6204 23.2423" fill="black"/><path id="Fill 71" fill-rule="evenodd" clip-rule="evenodd" d="M13.0927 45.5304C12.7387 44.1834 13.5537 43.2624 13.5537 43.2624C13.5537 43.2624 13.7987 46.7704 14.6507 47.3734C14.6507 47.3734 13.4467 46.8774 13.0927 45.5304M11.8457 39.8474C10.8107 39.1964 10.2587 37.2384 10.2587 37.2384C12.1717 38.0894 13.0927 40.4994 13.0927 40.4994C13.0927 40.4994 12.8807 40.4994 11.8457 39.8474M21.7387 25.8354C21.8807 23.6084 22.7307 23.3374 24.0767 22.0144C25.4237 20.6914 26.7667 17.5734 26.7667 17.5734C25.2587 16.4224 20.8707 13.1274 20.8707 13.1274C19.5597 13.3214 17.1327 17.1484 17.1327 17.1484C10.7187 21.5774 11.7817 28.4334 11.7817 28.4334C9.65571 30.1344 9.07171 33.7494 9.07171 33.7494C6.55571 37.0094 9.63771 40.1444 11.0197 40.6584C12.4017 41.1724 13.1637 42.1994 13.1637 42.1994C9.79771 45.9554 12.5787 47.1954 15.0417 48.5244C17.5047 49.8524 18.9687 52.8914 17.4747 54.2384C15.9807 55.5864 14.4177 53.3624 14.2787 53.4104C14.1397 53.4584 14.1877 54.0564 14.1877 54.0564C15.0377 55.2984 16.5357 55.2184 16.5357 55.2184C14.6067 56.1924 13.9367 54.3994 13.8187 54.4424C13.7007 54.4854 13.8187 55.0624 13.8187 55.0624C15.8507 57.1884 17.5337 55.6044 20.0847 52.2514C22.6357 48.8964 19.7067 44.6444 19.7067 44.6444C19.7067 44.6444 20.1327 42.3294 22.9197 40.7224C25.7067 39.1164 25.8957 35.7624 24.2527 33.1644C22.6097 30.5654 21.5967 28.0614 21.7387 25.8354" fill="#ffc9cf"/><g id="Group 99"><path id="Fill 97" fill-rule="evenodd" clip-rule="evenodd" d="M45.4785 61.0851C43.8485 62.0071 43.8845 61.4041 44.4515 59.9161C45.0185 58.4281 43.9555 56.6561 43.9555 56.6561C45.0695 56.9811 47.1085 60.1641 45.4785 61.0851M43.8255 62.7151C43.5655 62.7151 43.8255 62.2421 43.8255 62.2421C43.8255 62.2421 44.3925 62.2671 44.7935 62.2421C44.7935 62.2421 44.0845 62.7151 43.8255 62.7151M41.3325 55.3511C40.6955 54.8251 41.0845 53.5731 41.0845 53.5731C41.0845 53.5731 40.9875 54.6461 42.1245 55.5231C43.2615 56.3981 43.2815 57.7551 43.2815 57.7551C42.9985 56.9751 41.9705 55.8771 41.3325 55.3511M40.0925 44.2901C38.8525 43.2271 38.8175 41.4901 38.8175 41.4901C41.7585 47.2311 44.6035 44.0541 44.2975 47.8191C44.1325 49.8441 42.5735 50.4201 42.5735 50.4201C44.6635 47.5151 41.3325 45.3531 40.0925 44.2901M47.2145 54.2111C45.4785 52.7941 44.5925 53.8211 42.8775 53.3601C41.1615 52.9001 42.0775 51.8731 42.0775 51.8731C42.0775 51.8731 45.4075 50.5621 45.4365 46.4161C45.4665 42.2711 41.4395 42.8731 41.0145 41.2711C40.5885 39.6691 46.6125 37.4861 45.2305 33.8731C43.8485 30.2591 41.6875 30.0471 41.6875 30.0471C41.4745 29.4451 41.9705 28.9821 44.0615 27.0341C46.1515 25.0851 40.5535 19.3451 40.5535 19.3451C40.5535 19.3451 39.4905 16.2981 38.9855 14.8101C38.4805 13.3211 36.0185 11.7271 36.0185 11.7271C29.9945 6.58909 25.4235 8.85609 25.4235 8.85609C20.8525 9.22609 21.1005 13.1271 21.1005 13.1271C21.8805 13.5691 24.2185 15.0931 25.3885 16.0151C26.5575 16.9361 26.9545 17.3591 26.9545 17.3591C31.3485 12.9461 33.1245 16.9591 34.6125 20.5731C36.1005 24.1881 38.2265 25.4171 38.2265 25.4171C38.2265 25.4171 38.5105 29.7151 37.2395 32.9041C35.9695 36.0931 31.9975 38.6091 30.9605 38.9511C29.9245 39.2931 28.8535 38.6011 28.8535 38.6011C28.1725 40.2571 28.8485 43.4631 30.5965 44.3851C32.3445 45.3061 32.5985 46.7311 32.5985 46.7311C31.7175 53.0221 33.1475 52.6051 35.0375 54.9901C36.9275 57.3771 34.1405 59.6201 33.3365 59.6451C32.5335 59.6681 32.5105 59.9511 32.5105 59.9511C36.0065 60.0931 36.9745 56.8811 36.9745 56.8811C41.4155 60.7311 34.3175 62.7151 35.5215 66.6121C36.7265 70.5111 39.7385 70.8471 39.7385 70.6161C39.7385 70.3871 38.9855 70.1911 38.9855 70.1911C35.0935 68.2071 38.4985 65.0891 40.7665 64.7341C43.0335 64.3811 43.1755 63.1761 43.1755 63.1761C45.1955 63.3171 46.7895 61.0501 46.7895 61.0501C49.6595 59.6331 48.9515 55.6291 47.2145 54.2111" fill="#ffc9cf"/></g><g id="Group"><path id="Fill 73" fill-rule="evenodd" clip-rule="evenodd" d="M24.6795 16.3683C23.9805 16.9933 23.3785 17.7023 22.8895 18.4743C22.4095 19.2513 22.0065 20.0753 21.7815 20.9553C21.5545 21.8293 21.4035 22.7343 21.4325 23.6513C21.4195 24.5713 21.5795 25.4833 21.7285 26.4133C21.5655 25.9743 21.4055 25.5293 21.2765 25.0743C21.2005 24.6083 21.0605 24.1473 21.0485 23.6693C20.9265 22.7183 21.0695 21.7493 21.3005 20.8193C21.8185 18.9703 23.0465 17.3083 24.6795 16.3683" fill="#6F3C00"/><path id="Fill 75" fill-rule="evenodd" clip-rule="evenodd" d="M22.3059 15.1642C21.5659 16.1662 20.9679 17.2572 20.5389 18.4042C20.1129 19.5512 19.8369 20.7522 19.7959 21.9682C19.7499 23.1772 19.8469 24.4062 20.1929 25.5822C20.4819 26.7772 21.0209 27.8922 21.5619 29.0182C21.2179 28.5012 20.8609 27.9822 20.5579 27.4332C20.3069 26.8582 19.9879 26.3062 19.8249 25.6922C19.3789 24.5032 19.2579 23.2092 19.2969 21.9422C19.3529 20.6702 19.6589 19.4092 20.1849 18.2592C20.7019 17.1052 21.4069 16.0342 22.3059 15.1642" fill="#6F3C00"/><path id="Fill 77" fill-rule="evenodd" clip-rule="evenodd" d="M21.2176 13.9942C20.4186 15.0402 19.7726 16.1872 19.3046 17.3952C18.8396 18.6012 18.5436 19.8762 18.5296 21.1622C18.4866 22.4392 18.6326 23.7402 19.0566 24.9652C19.1986 25.6012 19.5206 26.1742 19.7586 26.7812C20.0256 27.3772 20.3826 27.9282 20.6756 28.5222C20.2896 27.9922 19.8866 27.4612 19.5406 26.8952C19.2536 26.2992 18.8856 25.7322 18.6926 25.0892C18.1786 23.8482 18.0226 22.4812 18.0306 21.1432C18.1296 18.4482 19.3236 15.8322 21.2176 13.9942" fill="#6F3C00"/><path id="Fill 79" fill-rule="evenodd" clip-rule="evenodd" d="M17.0613 17.7511C16.7063 18.4001 16.3713 19.0541 16.1133 19.7351C15.8383 20.4061 15.6173 21.1011 15.5373 21.7961C15.4603 22.4861 15.5063 23.1871 15.8453 23.7241C16.1703 24.2411 16.7553 24.7671 17.2813 25.2371C18.3593 26.2121 19.5203 27.1231 20.6093 28.1301C21.6563 29.1411 22.8873 30.1591 23.3443 31.6121C23.0083 30.9511 22.4783 30.4421 21.9323 29.9621C21.3963 29.4701 20.8183 29.0191 20.2383 28.5711C19.0733 27.6781 17.9013 26.7851 16.7803 25.7951C16.2303 25.2701 15.6773 24.8141 15.2283 24.0711C14.8203 23.3191 14.8003 22.4521 14.9703 21.7021C15.3073 20.1841 16.1053 18.8791 17.0613 17.7511" fill="#6F3C00"/><path id="Fill 81" fill-rule="evenodd" clip-rule="evenodd" d="M15.9966 19.5558C14.9106 21.2398 14.3956 23.2238 14.4486 25.1598C14.5016 26.1248 14.5936 27.1208 15.0476 27.9018C15.4946 28.6878 16.2726 29.2758 17.1056 29.7688C17.9366 30.2728 18.8326 30.6998 19.7336 31.1148C20.6216 31.5198 21.5986 31.9378 22.4226 32.5598C23.2566 33.1698 23.9806 33.9528 24.4566 34.8728C24.9176 35.7918 25.1346 36.8488 24.9626 37.8408C24.9716 35.8088 23.7146 34.0458 22.0936 33.0348C21.2676 32.5208 20.3936 32.1468 19.4456 31.7638C18.5216 31.3618 17.6046 30.9318 16.7176 30.4098C15.8536 29.8788 14.9596 29.2248 14.4266 28.2438C13.9156 27.2488 13.8436 26.1778 13.8706 25.1598C13.9356 23.1048 14.6506 21.0608 15.9966 19.5558" fill="#6F3C00"/><path id="Fill 83" fill-rule="evenodd" clip-rule="evenodd" d="M17.6133 30.4698C18.5383 31.8608 19.4003 33.4288 19.3513 35.2288C19.3383 35.6778 19.1663 36.1308 18.9053 36.5128C18.6353 36.8648 18.3323 37.1788 18.0163 37.4688C17.3903 38.0518 16.7223 38.5708 16.1873 39.1758C15.9273 39.4778 15.7013 39.8018 15.6063 40.1518C15.5203 40.5018 15.6213 40.8598 15.8023 41.1908C16.2113 41.8388 16.9243 42.3488 17.5413 42.9078C18.1763 43.4568 18.8503 43.9618 19.4893 44.5308C20.1363 45.0918 20.6253 45.8828 20.7113 46.7308C20.5073 45.8998 20.0093 45.2038 19.3303 44.7158C18.6753 44.1998 17.9723 43.7258 17.3003 43.2078C16.6383 42.6828 15.9373 42.1948 15.4123 41.4248C15.1793 41.0318 15.0283 40.5318 15.1403 40.0428C15.2603 39.5688 15.5293 39.1858 15.8123 38.8468C16.4093 38.1968 17.0943 37.6898 17.7103 37.1328C18.0223 36.8578 18.3103 36.5668 18.5603 36.2528C18.7693 35.9398 18.9343 35.5908 18.9703 35.1908C19.0733 34.3998 18.8673 33.5668 18.6153 32.7798C18.3603 31.9838 18.0073 31.2168 17.6133 30.4698" fill="#6F3C00"/><path id="Fill 85" fill-rule="evenodd" clip-rule="evenodd" d="M11.7818 28.4337C11.9838 29.4017 12.4868 30.2677 13.1598 30.9327C13.8428 31.5697 14.7218 32.0807 15.4778 32.7337C16.2358 33.3757 16.9858 34.1137 17.3938 35.0797C17.6088 35.5517 17.6768 36.0927 17.6268 36.6007C17.5758 37.1187 17.3348 37.5807 17.0718 37.9947C17.4718 37.0847 17.5058 36.0657 17.0448 35.2407C16.6038 34.4127 15.9018 33.7327 15.1568 33.1167C14.4288 32.4677 13.5818 31.9727 12.8808 31.1947C12.2128 30.4217 11.7778 29.4327 11.7818 28.4337" fill="#6F3C00"/><path id="Fill 87" fill-rule="evenodd" clip-rule="evenodd" d="M12.8472 30.8692C13.4262 31.6712 13.9442 32.5162 14.3922 33.4062C14.6162 33.8482 14.7812 34.3452 14.9212 34.8072C15.0742 35.2742 15.2302 35.7472 15.3632 36.2272C15.6392 37.1862 15.7892 38.1992 15.7262 39.2232C15.6852 39.7332 15.5802 40.2432 15.3982 40.7302C15.1782 41.2352 15.0062 41.5992 14.9562 42.0682C14.8402 42.9732 15.1682 43.9162 15.6882 44.7012C16.2042 45.4972 16.9312 46.1622 17.7542 46.6202C17.9592 46.7132 18.1832 46.8212 18.4302 46.9552C18.6502 47.1032 18.8532 47.2742 19.0212 47.4722C19.3592 47.8642 19.6042 48.3142 19.8012 48.7752C20.1672 49.7102 20.3832 50.6872 20.4662 51.6732C20.2722 50.7062 20.0072 49.7492 19.5772 48.8762C19.1502 47.9932 18.5662 47.2332 17.5842 46.9652C16.6522 46.5172 15.8872 45.7962 15.3092 44.9532C14.7392 44.1152 14.3412 43.0812 14.4602 42.0102C14.5122 41.4892 14.7752 40.9502 14.9542 40.5572C15.1242 40.1212 15.2282 39.6582 15.2742 39.1852C15.3532 38.2362 15.2042 37.2712 14.9922 36.3212C14.8842 35.8462 14.7522 35.3732 14.6202 34.8962C14.4962 34.4072 14.3672 33.9602 14.1702 33.5062C13.8042 32.5982 13.3302 31.7302 12.8472 30.8692" fill="#6F3C00"/><path id="Fill 89" fill-rule="evenodd" clip-rule="evenodd" d="M17.04 46.4161C17.568 47.0371 17.973 47.7531 18.308 48.5001C18.641 49.2491 18.879 50.0501 18.974 50.8781C19.054 51.7061 18.993 52.5621 18.715 53.3541C18.436 54.1511 17.912 54.8261 17.298 55.3511C17.761 54.6821 18.163 54.0011 18.348 53.2411C18.519 52.4841 18.561 51.7081 18.477 50.9331C18.4 50.1561 18.189 49.3941 17.951 48.6391C17.699 47.8861 17.393 47.1451 17.04 46.4161" fill="#6F3C00"/><path id="Fill 91" fill-rule="evenodd" clip-rule="evenodd" d="M9.42822 32.3224C9.99822 33.6744 10.7372 34.9634 11.7402 35.9504C12.0032 36.1934 12.2602 36.3864 12.5612 36.6124C12.8722 36.8374 13.1652 37.0924 13.4362 37.3734C13.9782 37.9324 14.3972 38.6554 14.5712 39.4574C14.7142 40.2654 14.5772 41.1184 14.2172 41.8224C13.8812 42.5274 13.2912 43.1354 12.8892 43.6354C12.4942 44.1824 12.2782 44.8584 12.4172 45.5334C12.5172 46.2184 12.9392 46.8474 13.4472 47.3734C12.8292 46.9724 12.3062 46.3724 12.0602 45.6214C11.8152 44.8624 12.0032 43.9964 12.4042 43.3234C12.8482 42.6294 13.3062 42.1704 13.5742 41.5204C13.8642 40.9074 13.9532 40.2374 13.8352 39.5994C13.7082 38.9634 13.3752 38.3594 12.9132 37.8504C12.6882 37.5924 12.4362 37.3504 12.1612 37.1324C11.8812 36.9084 11.5732 36.6324 11.3252 36.3474C10.3212 35.1804 9.70822 33.7724 9.42822 32.3224" fill="#6F3C00"/><path id="Fill 93" fill-rule="evenodd" clip-rule="evenodd" d="M19.1699 34.5772C19.8409 34.7912 20.4179 35.2602 20.8639 35.8182C21.3189 36.3792 21.6049 37.0622 21.7709 37.7592C21.9419 38.4602 21.9309 39.1812 21.8669 39.8832C21.8129 40.2312 21.7459 40.5772 21.6779 40.9192C21.5659 41.2532 21.4699 41.5882 21.3439 41.9122C21.4009 41.2142 21.4759 40.5372 21.4829 39.8592C21.4549 39.1852 21.4529 38.5112 21.2829 37.8692C21.0019 36.5822 20.3129 35.3782 19.1699 34.5772" fill="#6F3C00"/><path id="Fill 95" fill-rule="evenodd" clip-rule="evenodd" d="M18.6851 32.6163C20.2981 33.0383 21.6211 34.3303 22.3781 35.8343C22.7271 36.6033 22.9931 37.4183 23.0611 38.2543C23.1311 38.6673 23.0911 39.0893 23.0981 39.4993C23.0521 39.9123 23.0021 40.3223 22.9191 40.7223C22.7921 39.9073 22.6781 39.1193 22.4851 38.3553C22.3071 37.5893 22.0321 36.8613 21.7051 36.1643C21.3721 35.4693 20.9351 34.8293 20.4351 34.2313C19.9271 33.6423 19.3581 33.0843 18.6851 32.6163" fill="#6F3C00"/><path id="Fill 102" fill-rule="evenodd" clip-rule="evenodd" d="M25.3884 16.0147C25.1234 15.2747 25.0894 14.4607 25.1964 13.6737C25.2964 12.8807 25.5784 12.1157 25.9684 11.4157C26.3914 10.7367 26.8954 10.1067 27.5104 9.60467C27.8044 9.33967 28.1454 9.13367 28.4584 8.90167C28.8034 8.71067 29.1474 8.52467 29.4984 8.35867C28.8964 8.85867 28.2954 9.33167 27.7734 9.88467C27.2454 10.4297 26.7874 11.0277 26.4004 11.6657C25.6634 12.9617 25.2694 14.4607 25.3884 16.0147" fill="#6F3C00"/><path id="Fill 104" fill-rule="evenodd" clip-rule="evenodd" d="M27.219 17.1026C26.796 15.8566 26.633 14.4646 27.028 13.1376C27.398 11.7786 28.735 10.7986 30.084 10.5646C30.427 10.5186 30.761 10.4466 31.114 10.4236C31.473 10.4066 31.835 10.4496 32.187 10.5356C32.892 10.7156 33.519 11.1156 34.029 11.5936C35.047 12.5726 35.695 13.7986 36.237 15.0266C37.252 17.5226 37.837 20.1256 38.417 22.6976C38.561 23.3396 38.707 23.9826 38.886 24.6066C39.06 25.2366 39.279 25.8376 39.728 26.2426C40.145 26.6846 40.846 26.6806 41.42 26.4066C42.008 26.1486 42.53 25.7246 42.998 25.2626C42.589 25.7796 42.11 26.2626 41.507 26.5846C40.948 26.9296 40.067 27.0336 39.493 26.5256C38.917 26.0636 38.644 25.3726 38.435 24.7506C38.216 24.1156 38.036 23.4756 37.858 22.8366C37.161 20.2876 36.581 17.7056 35.548 15.3196C35.05 14.1306 34.444 12.9636 33.559 12.0866C33.115 11.6576 32.595 11.3196 32.019 11.1606C31.447 10.9826 30.828 11.0606 30.192 11.1276C28.952 11.2906 27.794 12.0476 27.372 13.2606C26.892 14.4436 26.956 15.8206 27.219 17.1026" fill="#6F3C00"/><path id="Fill 106" fill-rule="evenodd" clip-rule="evenodd" d="M35.7202 14.7745C36.7252 15.4015 37.4242 16.4455 37.8722 17.5445C38.3572 18.6525 38.4222 19.8795 38.5882 21.0065C38.7572 22.1455 38.9542 23.2985 39.4452 24.3035C39.6922 24.7995 40.0652 25.2385 40.5752 25.4455C41.0812 25.6745 41.6802 25.6425 42.2542 25.5435C41.7102 25.7505 41.0922 25.8495 40.4912 25.6745C39.8902 25.4915 39.4202 25.0115 39.1102 24.4925C38.4892 23.4305 38.2792 22.2355 38.0942 21.0785C37.9332 19.9005 37.8892 18.7585 37.5132 17.6755C37.1552 16.6005 36.5892 15.5595 35.7202 14.7745" fill="#6F3C00"/><path id="Fill 108" fill-rule="evenodd" clip-rule="evenodd" d="M28.0765 16.3683C27.9805 15.6823 28.0555 14.9793 28.2415 14.3003C28.4265 13.6203 28.7835 12.9663 29.3125 12.4593C29.8425 11.9603 30.5435 11.6193 31.2595 11.5733C31.6125 11.5023 31.9685 11.5713 32.3155 11.5733C32.6595 11.6373 32.9965 11.7213 33.3255 11.8153C32.6345 11.8143 31.9605 11.7873 31.3255 11.9523C30.6865 12.0793 30.1085 12.3863 29.6555 12.8213C29.1915 13.2513 28.8595 13.8183 28.6035 14.4243C28.3565 15.0353 28.1865 15.6913 28.0765 16.3683" fill="#6F3C00"/><path id="Fill 110" fill-rule="evenodd" clip-rule="evenodd" d="M34.1289 12.1866C34.3419 11.9416 34.6719 11.8006 35.0029 11.7676C35.3359 11.7306 35.6719 11.7896 35.9839 11.8886C36.2959 11.9996 36.5869 12.1486 36.8569 12.3296C37.1249 12.5106 37.3649 12.7276 37.5879 12.9576L36.7579 12.4946C36.4789 12.3536 36.2009 12.2106 35.9059 12.1256C35.6199 12.0136 35.3159 11.9646 35.0139 11.9586C34.7139 11.9586 34.3999 12.0146 34.1289 12.1866" fill="#6F3C00"/><path id="Fill 112" fill-rule="evenodd" clip-rule="evenodd" d="M30.144 15.4347C30.259 14.4887 30.838 13.5647 31.721 13.0947C32.165 12.8817 32.65 12.7447 33.139 12.7437C33.382 12.7287 33.623 12.7737 33.862 12.7877L34.561 12.9577C34.084 12.9157 33.613 12.8857 33.151 12.9357C32.687 12.9747 32.24 13.1037 31.838 13.3157C31.425 13.5127 31.084 13.8347 30.8 14.1977C30.52 14.5637 30.295 14.9837 30.144 15.4347" fill="#6F3C00"/><path id="Fill 114" fill-rule="evenodd" clip-rule="evenodd" d="M30.4512 15.4249C30.9292 14.6119 31.7022 13.9479 32.6262 13.6369C33.0902 13.4899 33.5942 13.4569 34.0682 13.5549C34.5512 13.6289 34.9772 13.8729 35.3682 14.1299C34.9312 13.9529 34.4962 13.7799 34.0392 13.7449C33.5892 13.6919 33.1282 13.7209 32.7012 13.8749C32.2662 14.0019 31.8642 14.2289 31.4892 14.4939C31.1182 14.7649 30.7632 15.0709 30.4512 15.4249" fill="#6F3C00"/><path id="Fill 116" fill-rule="evenodd" clip-rule="evenodd" d="M31.436 15.6808C31.731 15.2448 32.143 14.8688 32.651 14.6618C33.155 14.4448 33.747 14.4478 34.265 14.6268C34.79 14.8088 35.214 15.1668 35.594 15.5378C35.763 15.7448 35.946 15.9398 36.1 16.1548L36.52 16.8268C36.177 16.4238 35.836 16.0308 35.459 15.6748C35.067 15.3468 34.666 15.0078 34.182 14.8628C33.715 14.6818 33.196 14.6798 32.718 14.8408C32.24 14.9998 31.801 15.3038 31.436 15.6808" fill="#6F3C00"/><path id="Fill 118" fill-rule="evenodd" clip-rule="evenodd" d="M38.3286 18.2218C39.2026 18.5398 40.0096 19.0248 40.7606 19.5808C41.5136 20.1388 42.1826 20.8128 42.7556 21.5638C43.3306 22.3148 43.7506 23.1858 44.0116 24.0908C44.2996 24.9958 44.3046 25.9598 44.2076 26.8738C44.0956 25.9538 43.9956 25.0478 43.6456 24.2098C43.3136 23.3778 42.9116 22.5698 42.3546 21.8618C41.2766 20.4208 39.8766 19.2298 38.3286 18.2218" fill="#6F3C00"/><path id="Fill 120" fill-rule="evenodd" clip-rule="evenodd" d="M38.8945 20.5851C39.5305 20.9471 40.0985 21.4141 40.6335 21.9141C41.1685 22.4151 41.6485 22.9781 42.0705 23.5851C42.4775 24.2011 42.8315 24.8601 43.0605 25.5681C43.2765 26.2801 43.3775 27.0281 43.2895 27.7561C43.1695 27.0331 42.9775 26.3541 42.7005 25.7041C42.4005 25.0641 42.0565 24.4511 41.6575 23.8661C40.8565 22.6961 39.9045 21.6331 38.8945 20.5851" fill="#6F3C00"/><path id="Fill 122" fill-rule="evenodd" clip-rule="evenodd" d="M38.2534 26.4132C38.7074 27.1342 39.1964 27.7672 39.7464 28.3602C40.2924 28.9572 40.9034 29.4772 41.5454 30.0472C40.7164 29.8232 39.9734 29.3262 39.3794 28.6992C39.0894 28.3792 38.8304 28.0272 38.6384 27.6402C38.4444 27.2552 38.2864 26.8452 38.2534 26.4132" fill="#6F3C00"/><path id="Fill 124" fill-rule="evenodd" clip-rule="evenodd" d="M38.1768 28.4337C38.4798 29.3177 39.0358 30.0707 39.6848 30.6957C40.3378 31.3227 41.1158 31.7877 41.9138 32.2757C42.6868 32.7687 43.5548 33.2767 44.0928 34.1247C44.6248 34.9637 44.7738 35.9377 44.7788 36.8677C44.5708 35.9597 44.3188 35.0497 43.7778 34.3457C43.2368 33.6457 42.4408 33.1897 41.6508 32.7007C40.8698 32.2087 40.0388 31.6957 39.4088 30.9597C38.7798 30.2457 38.2798 29.3747 38.1768 28.4337" fill="#6F3C00"/><path id="Fill 126" fill-rule="evenodd" clip-rule="evenodd" d="M37.9868 30.047C38.4138 30.811 39.0158 31.417 39.6258 31.99C40.2418 32.553 40.9458 33.04 41.6188 33.61C42.2788 34.182 42.9488 34.801 43.4088 35.61C43.9108 36.395 43.9798 37.466 43.5668 38.244C43.6828 37.36 43.4188 36.565 42.9178 35.928C42.4248 35.283 41.7878 34.73 41.1348 34.182C40.4968 33.621 39.7868 33.092 39.2068 32.396C38.6298 31.72 38.1428 30.921 37.9868 30.047" fill="#6F3C00"/><path id="Fill 128" fill-rule="evenodd" clip-rule="evenodd" d="M36.8403 33.7354C37.5163 33.9084 38.1273 34.2824 38.6743 34.7174C39.2283 35.1534 39.6933 35.6924 40.0993 36.2654C40.4793 36.8564 40.8133 37.4784 41.0333 38.1424C41.1553 38.4694 41.2283 38.8124 41.3243 39.1444C41.3843 39.4874 41.4423 39.8294 41.4773 40.1724C41.2113 39.5314 40.9773 38.8954 40.6773 38.2904C40.3833 37.6834 40.0553 37.1014 39.6853 36.5474C38.9293 35.4524 38.0103 34.4644 36.8403 33.7354" fill="#6F3C00"/><path id="Fill 130" fill-rule="evenodd" clip-rule="evenodd" d="M36.1953 34.8292C36.8883 34.8172 37.5513 35.1832 38.0643 35.6542C38.5923 36.1262 38.9573 36.7452 39.2383 37.3772C39.5013 38.0232 39.7023 38.6362 39.9473 39.2612C40.0623 39.5732 40.1933 39.8792 40.3353 40.1782C40.4713 40.4792 40.6123 40.7862 40.8423 41.0302C40.2543 40.6522 39.9293 40.0042 39.5973 39.4212C39.2683 38.8302 39.0323 38.1672 38.7793 37.5742C38.5263 36.9762 38.2073 36.4092 37.7893 35.9212C37.3713 35.4402 36.8443 35.0232 36.1953 34.8292" fill="#6F3C00"/><path id="Fill 132" fill-rule="evenodd" clip-rule="evenodd" d="M35.6636 35.5733C36.6426 36.5423 37.4886 37.6463 38.1736 38.8563C38.5256 39.4573 38.8166 40.0943 39.0766 40.7513C39.3176 41.4623 39.4746 41.9893 39.8376 42.4933C40.5016 43.5153 41.6606 44.1063 42.8996 44.6453C43.2116 44.7973 43.5356 44.9113 43.8786 45.1903C44.1456 45.4453 44.3856 45.7043 44.5956 45.9983C44.9846 46.5913 45.3076 47.2783 45.2506 47.9793C45.0826 47.3133 44.6976 46.7563 44.2256 46.3103C43.9936 46.0863 43.7356 45.8773 43.4776 45.7003C43.2656 45.5823 42.9366 45.4693 42.6196 45.3693C41.9696 45.1693 41.2996 44.9163 40.6606 44.5583C40.0296 44.1903 39.4466 43.6823 39.0126 43.0573C38.5816 42.4443 38.3506 41.6423 38.1836 41.0603C37.9926 40.4323 37.7346 39.8213 37.4776 39.2053C36.9346 37.9853 36.3316 36.7723 35.6636 35.5733" fill="#6F3C00"/><path id="Fill 134" fill-rule="evenodd" clip-rule="evenodd" d="M35.6639 36.2823C35.0999 37.6983 34.6199 39.1433 34.2949 40.6143C34.0069 42.0693 33.7889 43.6303 34.2879 44.9863C34.4899 45.6923 35.0079 46.1903 35.5949 46.6013L37.5489 47.7743C38.1919 48.1813 38.8749 48.5413 39.4469 49.1003C39.7239 49.3863 39.9269 49.7633 39.9719 50.1563C40.0239 50.5473 39.9689 50.9313 39.8999 51.3053C39.9159 50.9253 39.9229 50.5413 39.8419 50.1803C39.7609 49.8183 39.5519 49.5113 39.2759 49.2763C38.7229 48.7993 38.0229 48.4723 37.3589 48.1093C36.6819 47.7613 36.0199 47.3763 35.3599 46.9903C34.6989 46.5623 34.0559 45.9483 33.8189 45.1593C33.5629 44.3953 33.4829 43.5913 33.5449 42.8143C33.5799 42.0333 33.7269 41.2693 33.9229 40.5243C34.3339 39.0403 34.9129 37.6123 35.6639 36.2823" fill="#6F3C00"/><path id="Fill 136" fill-rule="evenodd" clip-rule="evenodd" d="M34.4779 39.253C34.5439 40.399 34.7249 41.527 35.0799 42.563C35.2719 43.072 35.4979 43.565 35.8309 43.963C36.1439 44.386 36.5529 44.633 37.0629 44.964C38.0049 45.625 38.9539 46.318 39.7119 47.252C40.0839 47.716 40.4089 48.261 40.5109 48.872C40.6039 49.482 40.4849 50.097 40.1989 50.597C40.3289 50.035 40.3499 49.464 40.1579 48.962C39.9909 48.456 39.6489 48.027 39.2749 47.636C38.5019 46.863 37.5729 46.218 36.6409 45.583C36.1999 45.289 35.6189 44.918 35.2639 44.394C34.8999 43.883 34.6589 43.313 34.5189 42.732C34.2289 41.572 34.2529 40.383 34.4779 39.253" fill="#6F3C00"/><path id="Fill 138" fill-rule="evenodd" clip-rule="evenodd" d="M38.8176 41.9122C38.8596 42.9682 39.2366 43.9822 39.7826 44.8602C40.0466 45.3072 40.3926 45.6892 40.6916 46.1532C40.9836 46.6102 41.2076 47.1292 41.2876 47.6842C41.4636 48.8182 40.9886 49.8952 40.4826 50.8202C39.9626 51.7652 39.3146 52.6102 38.7646 53.4912C38.1886 54.3482 37.7556 55.3102 38.2456 56.2212C38.6416 57.1332 39.4606 57.8692 39.9826 58.8212C40.5336 59.7412 40.9306 60.7812 41.0006 61.8632C41.0596 62.9492 40.7126 64.0162 40.1346 64.8942C40.6436 63.9712 40.8936 62.9092 40.7566 61.8832C40.6396 60.8572 40.2246 59.8862 39.6556 59.0242C39.1166 58.1492 38.3166 57.4332 37.8306 56.4082C37.5816 55.9102 37.4806 55.2812 37.6376 54.7182C37.7796 54.1552 38.0616 53.6782 38.3426 53.2242C38.9236 52.3232 39.5756 51.4972 40.0866 50.5982C40.5986 49.7082 41.0086 48.7262 40.9076 47.7312C40.8586 47.2382 40.6786 46.7582 40.4216 46.3162C40.1716 45.8802 39.8206 45.4592 39.5716 44.9812C39.0786 44.0312 38.7776 42.9702 38.8176 41.9122" fill="#6F3C00"/><path id="Fill 140" fill-rule="evenodd" clip-rule="evenodd" d="M40.9673 47.1046C41.5163 47.7026 41.8113 48.5416 41.7703 49.3806C41.7203 50.2326 41.2863 50.9976 40.8553 51.6756C40.4303 52.3676 39.9353 53.0096 39.6453 53.7236C39.3293 54.4236 39.3143 55.2086 39.7493 55.8096C40.5953 56.9956 42.3373 57.8076 42.8483 59.5206C43.2753 61.2196 42.6393 62.8226 42.1243 64.3296C42.3003 63.5386 42.4963 62.7536 42.5943 61.9586C42.7083 61.1706 42.7293 60.3586 42.4823 59.6366C42.2293 58.9186 41.7063 58.3306 41.1133 57.7996C40.5413 57.2486 39.8493 56.8176 39.3293 56.0806C38.8023 55.3416 38.8553 54.2906 39.2273 53.5456C39.5713 52.7676 40.0693 52.1136 40.5373 51.4616C41.0033 50.8126 41.4323 50.1386 41.5283 49.3586C41.6433 48.5866 41.4253 47.7686 40.9673 47.1046" fill="#6F3C00"/><path id="Fill 142" fill-rule="evenodd" clip-rule="evenodd" d="M37.7944 61.2481C37.9894 62.1271 38.0344 63.0061 38.0444 63.8851C38.0354 64.7651 37.9904 65.6441 37.7944 66.5221C37.5984 65.6431 37.5534 64.7641 37.5444 63.8851C37.5544 63.0061 37.6004 62.1271 37.7944 61.2481" fill="#6F3C00"/><path id="Fill 144" fill-rule="evenodd" clip-rule="evenodd" d="M36.0037 63.7491C36.1827 64.3661 36.3287 64.9321 36.5277 65.4891C36.6167 65.7701 36.7267 66.0431 36.8337 66.3221C36.9377 66.6041 37.0757 66.8721 37.1877 67.1801C36.6427 66.8281 36.2627 66.2591 36.0547 65.6501C35.8557 65.0391 35.7917 64.3661 36.0037 63.7491" fill="#6F3C00"/><path id="Fill 146" fill-rule="evenodd" clip-rule="evenodd" d="M40.7661 52.2267C41.0981 52.7647 41.4511 53.2747 41.8351 53.7537C42.2241 54.2387 42.6271 54.6677 43.0781 55.1177C43.5001 55.5737 43.9681 56.0657 44.1851 56.7187C44.3991 57.3677 44.3521 58.0187 44.2511 58.6407C44.1471 58.0177 44.0851 57.3857 43.8291 56.8617C43.5711 56.3437 43.1481 55.9107 42.7171 55.4617C42.2891 55.0197 41.8421 54.5237 41.5221 53.9737C41.1891 53.4287 40.9091 52.8477 40.7661 52.2267" fill="#6F3C00"/><path id="Fill 148" fill-rule="evenodd" clip-rule="evenodd" d="M42.5093 54.4239C43.2933 54.2399 44.1253 54.2639 44.9273 54.4649C45.7303 54.6619 46.4993 55.1329 47.0083 55.8219C47.5093 56.5169 47.7573 57.3479 47.8113 58.1659C47.8263 58.5739 47.7973 58.9829 47.7773 59.3849C47.6943 59.7819 47.6273 60.1789 47.5293 60.5669C47.5153 60.1619 47.5323 59.7669 47.5323 59.3729C47.5013 58.9819 47.4883 58.5889 47.4283 58.2079C47.2903 57.4499 47.0513 56.7209 46.6093 56.1239C46.1763 55.5189 45.5273 55.0979 44.8123 54.8299C44.0923 54.5709 43.3073 54.4449 42.5093 54.4239" fill="#6F3C00"/><path id="Fill 150" fill-rule="evenodd" clip-rule="evenodd" d="M43.9551 56.2667C44.9081 56.1887 45.8211 56.7487 46.4341 57.4567C46.7451 57.8197 46.9801 58.2347 47.1851 58.6577L47.4361 59.3147L47.6061 59.9957C47.2401 59.1397 46.8431 58.3027 46.2441 57.6207C45.9571 57.2717 45.6151 56.9717 45.2311 56.7347C44.8461 56.5037 44.4181 56.3187 43.9551 56.2667" fill="#6F3C00"/><path id="Fill 152" fill-rule="evenodd" clip-rule="evenodd" d="M33.069 37.9942C32.675 38.8712 32.344 39.7702 32.154 40.6972C31.945 41.6152 31.85 42.5602 31.972 43.4682C32.093 44.3732 32.425 45.2362 33.012 45.9092C33.567 46.5612 34.398 47.1432 35.082 47.8582C36.437 49.2692 37.503 51.1482 37.529 53.1792C37.553 54.1792 37.365 55.1652 37.041 56.0872C36.678 56.9972 36.216 57.8522 35.664 58.6402C36.496 56.9212 37.137 55.0602 36.953 53.2122C36.796 51.3692 35.83 49.7092 34.541 48.3772C33.912 47.6912 33.136 47.1712 32.459 46.3512C31.818 45.5472 31.445 44.5292 31.401 43.5242C31.294 41.5032 32.022 39.5982 33.069 37.9942" fill="#6F3C00"/><path id="Fill 154" fill-rule="evenodd" clip-rule="evenodd" d="M32.6519 47.9796C32.9469 48.8486 33.3699 49.6556 33.8809 50.3896C34.4159 51.1016 34.9809 51.8756 35.3799 52.7196C35.7809 53.5646 36.0609 54.4966 36.0649 55.4476C36.0749 56.3976 35.8199 57.3296 35.3679 58.1296C35.6299 57.2496 35.7689 56.3496 35.6819 55.4666C35.5899 54.5866 35.3219 53.7366 34.9289 52.9356C34.5539 52.1176 34.0429 51.3986 33.5549 50.5976C33.0899 49.7876 32.7439 48.9016 32.6519 47.9796" fill="#6F3C00"/></g></g></g></g></g></svg>