<svg viewBox="3.7234042553191387 95.85000000000002 303.19148936170217 340.79999999999995" xmlns="http://www.w3.org/2000/svg" overflow="visible" xmlns:xlink="http://www.w3.org/1999/xlink" width="303.19148936170217px" height="340.79999999999995px"><g id="Master/Pose/Sitting" stroke="none" stroke-width="1" fill="none" fill-rule="evenodd"><g id="Head/Front" transform="translate(38.000000, 73.000000) scale(1 1)"><g id="Head/Front/Long" stroke="none" stroke-width="1" fill="none" fill-rule="evenodd"><path d="M74.5,27 C85.2821207,27 94.2105014,34.9368049 95.7615049,45.2867779 C99.2080531,57.9860871 103.701616,86.5432912 99.1172687,91.0224659 L70.1172687,91.0224659 L70.1089864,90.8685463 C59.3601277,89.6792412 51,80.5659268 51,69.5 L51,48.5 C51,36.6258779 60.6258779,27 72.5,27 L74.5,27 Z" id="Hair-Back" fill="#181658"/><g id="Head" transform="translate(54.000000, 31.000000)" fill="#915b3c"><path d="M38.1433414,9.13393292 C43.9381521,19.9350547 43.249578,47.3329958 35.7603014,49.2634576 C32.773664,50.0333035 26.4113241,48.1475566 19.935865,44.2446031 L24,73 L0,73 L8.26160177,34.4893378 C3.65406109,29.0807313 0.535660132,22.452516 1.05677633,15.0254539 C2.55833022,-6.37502057 32.3485306,-1.66718886 38.1433414,9.13393292 Z" id="SKIN"/></g><path d="M73.0014183,28 C84.581449,28 88.2365853,33.3883223 91.3486809,37.9630857 C89.0214598,45.9483908 79.9899431,47.1322506 71.9650913,52.1099145 C71.0199697,51.3410485 69.8137784,50.8804131 68.5,50.8804131 C65.4624339,50.8804131 63,53.3428469 63,56.3804131 C63,59.4179792 65.4624339,61.8804131 68.5,61.8804131 C68.5838976,61.8804131 68.6673564,61.8785346 68.7503367,61.8748173 C69.8557449,73.7527524 69.4127451,87.3172545 66.1172687,90.5371269 L37.1172687,90.5371269 C35.5014749,62.4634848 51.1172687,73.3348557 51.1172687,46.9027926 C52.0907327,45.9516616 53.010584,45.010258 53.9207807,44.19836 L53.888877,43.4207004 C58.9105508,33.1402335 65.2813979,28 73.0014183,28 Z" id="Hair-Front" fill="#181658"/></g></g><g id="Bottom/Sitting" transform="translate(-44.000000, 260.000000) scale(1 1)"><g id="Bottom/Sitting/Baggy Pants" stroke="none" stroke-width="1" fill="none" fill-rule="evenodd"><g id="Objects/Seat" transform="translate(10.000000, 42.000000) scale(1 1)"><g id="Objects/Seat/Cube" stroke="none" stroke-width="1" fill="none" fill-rule="evenodd"><g id="Seat" transform="translate(55.000000, 0.000000)"><polygon id="Seat-Stuff" fill="#C5CFD6" points="27.6226415 0 104.877193 0 115 124 0 124"/><polygon id="Seat-Stuff" fill-opacity=".1" fill="#000" points="27.6226415 0 51.3828011 0 65.6037736 124 0 124"/></g></g></g><path d="M299.158964,161 C279.443095,136.924175 266.102867,119.075435 259.13828,107.453779 C247.213216,87.5546842 237.453121,69.8481647 234.373078,63.0843539 C227.028322,46.9551796 251.281896,39.4026181 256.77103,46.9258 C265.079054,58.3124345 282.822044,94.1429674 310,154.417399 L299.158964,161 Z" id="SKIN" fill="#915b3c"/><path d="M258.757567,154 L222.065197,61.6367769 C214.217429,44.7995771 252.115758,33.7320765 257.883274,41.5677718 C270.977322,59.3572261 302.098846,129.534043 306,134.834115 L258.757567,154 Z" id="LegLower" fill="#191847"/><path d="M189.237285,155.164363 C188.230648,142.563747 186.360443,98.9430419 188.231659,78.7526333 C188.769372,72.9507196 189.335888,67.3411998 189.906801,62.0789726 C191.603754,46.4377715 220.605851,46.9321998 218.302721,61.7921247 C212.567016,98.799211 202.471523,150.6625 201.747941,155.14378 C200.733811,161.424485 189.869924,163.083457 189.237285,155.164363 Z" id="SKIN" fill="#915b3c" transform="translate(202.932881, 105.497494) rotate(39.000000) translate(-202.932881, -105.497494)"/><g id="Left" transform="translate(184.316987, 147.977241) rotate(30.000000) translate(-184.316987, -147.977241) translate(155.316987, 137.477241)" fill="#E4E4E4"><path d="M1.67813181,6.40192425 C0.559377268,9.38841089 4.54747351e-13,11.6229931 4.54747351e-13,13.1056708 C4.54747351e-13,14.908957 0.300414205,17.5404001 0.901242614,21 C2.99318117,21 21.7937852,21 57.3030548,21 C58.768738,16.1545073 57.9226607,13.5385816 54.7648228,13.1522232 C51.606985,12.7658647 48.9837155,12.4170139 46.8950143,12.1056708 L20.6799926,0.41888346 C20.1755635,0.194006431 19.584344,0.4206282 19.359467,0.925057349 C19.35562,0.933686736 19.3518954,0.94237021 19.3482945,0.951105154 L17.6632131,5.03869504 L17.6632131,5.03869504 C14.7398812,6.40265216 12.3643706,7.08463071 10.5366811,7.08463071 C9.05172687,7.08463071 7.00099246,6.48490544 4.38447792,5.28545491 L4.38448339,5.28544297 C3.38038273,4.82514778 2.19325534,5.26598921 1.73296014,6.27008987 C1.71312074,6.31336808 1.69483298,6.35734088 1.67813181,6.40192425 Z" id="shoe"/></g><g id="Right" transform="translate(289.000000, 151.000000)" fill="#E4E4E4"><path d="M1.67813181,6.40192425 C0.559377268,9.38841089 0,11.6229931 0,13.1056708 C0,14.908957 0.300414205,17.5404001 0.901242614,21 C2.99318117,21 21.7937852,21 57.3030548,21 C58.768738,16.1545073 57.9226607,13.5385816 54.7648228,13.1522232 C51.606985,12.7658647 48.9837155,12.4170139 46.8950143,12.1056708 L20.6799926,0.41888346 C20.1755635,0.194006431 19.584344,0.4206282 19.359467,0.925057349 C19.35562,0.933686736 19.3518954,0.94237021 19.3482945,0.951105155 L17.6632131,5.03869504 L17.6632131,5.03869504 C14.7398812,6.40265216 12.3643706,7.08463071 10.5366811,7.08463071 C9.05172687,7.08463071 7.00099246,6.48490544 4.38447792,5.28545491 L4.38448339,5.28544297 C3.38038273,4.82514778 2.19325534,5.26598921 1.73296014,6.27008987 C1.71312074,6.31336808 1.69483298,6.35734088 1.67813181,6.40192425 Z" id="shoe"/></g><path d="M208.862091,66.2500522 C178.365272,61.2817352 157.938089,57.8844191 147.580542,56.0581041 C118.057451,50.8523866 109.448266,34.9653306 114.538476,0.302228659 L168.93427,0.302228659 C176.132679,2.38099361 206.210425,15.2374805 259.167508,38.8716893 C268.695532,43.6015333 266.921101,57.5474982 265.179547,62.1420768 C265.10852,62.3294612 249.046098,89.8530148 216.99228,144.712738 L172.494227,116.36549 L208.945659,69.5903876 C209.908306,67.6514874 209.88045,66.5380423 208.862091,66.2500522 Z" id="Leg-and-Butt" fill="#393f82"/></g></g><g id="Body" transform="translate(-22.000000, 155.000000) scale(1 1)"><g id="Body/Hoodie" stroke="none" stroke-width="1" fill="none" fill-rule="evenodd"><path d="M68.3079281,93.0198914 L89.2053198,93.1020711 C76.3021447,134.755739 69.3363474,156.856914 68.3079281,159.405597 C65.9939846,165.140133 70.8906002,173.873732 72.9845874,178.567103 C66.1645409,181.61887 66.8912241,170.316929 58.2879189,174.319492 C50.4352209,177.972846 44.4616931,184.59248 35.3890352,178.994371 C34.2736052,178.306117 33.0512757,175.714714 36.0045784,173.68967 C43.3623323,168.644547 53.9653015,159.814672 55.3979297,156.908251 C57.3515741,152.944826 61.6549068,131.648706 68.3079281,93.0198914 L68.3079281,93.0198914 Z M190.781205,92.2114854 L222.679476,115.635084 C231.330944,117.969562 238.558965,120.874047 244.363541,124.34854 C245.734683,125.597945 247.391836,128.128197 241.70538,127.690906 C236.018925,127.253615 230.01796,127.049392 229.233339,128.988954 C228.448719,130.928516 231.889854,133.24802 230.303794,135.864997 C229.246421,137.609648 224.250967,133.234999 215.31743,122.74105 L183.729774,109.642447 L190.781205,92.2114854 Z" id="SKIN" fill="#915b3c"/><path d="M122.731734,9.58031077 L131.216685,7.34914009 C165.5935,32.1628362 183.361709,84.0563407 224.996623,108.72736 L216.58973,121.240539 C147.889238,118.771641 125.383314,55.5469019 122.731734,9.58031077 Z" id="Coat-Back" fill="#c21b15" transform="translate(173.864178, 64.294840) rotate(5.000000) translate(-173.864178, -64.294840)"/><path d="M90,114 C124.671756,114 150.175573,114 166.511451,114 C170.007634,114 169.348845,108.951637 168.84345,106.404206 C163.010588,77.0037663 140.241304,45.3115155 140.241304,3.4607303 L118.1718,0 C99.917485,29.3584068 93.6048263,65.5045499 90,114 Z" id="Shirt" fill="#C7D1D9"/><path d="M116.510031,-7.10542736e-15 C117.255457,-6.66133815e-15 117.93832,0.0466286213 118.558619,0.139885864 L125.471587,0.534739944 C145.293986,67.7151944 150.760885,112.536948 141.872285,135 L141.872285,135 L81.6511486,135.001552 C78.0833907,143.320741 74.6693386,150.320224 71.4089926,156 L71.4089926,156 L55,156 C53.4556773,106.066899 65.3273884,63.686084 90.6151334,28.8575562 C87.4099906,27.9369844 84.8714148,25.7879767 83,22.4111902 C74.933557,7.85607578 77.8467271,-0.157592785 86.4671964,-2.7917309 C95.0876658,-5.42586901 102.775319,-2.04281037e-14 116.510031,-7.10542736e-15 Z" id="Coat-Front" fill="#ff4133"/><path d="M104,135 L81.6515228,135.000679 C85.8135041,125.295819 90.1846546,113.79505 94.7649742,100.498371 C96.6589721,116.343356 99.7372842,127.844605 104,135 Z" id="Shade" fill-opacity=".1" fill="#000"/></g></g></g></svg>